<?xml version="1.0" encoding="iso-8859-1"?>
<!-- Generator: Adobe Illustrator 19.0.0, SVG Export Plug-In . SVG Version: 6.00 Build 0)  -->
<svg version="1.1" id="Layer_1" xmlns="http://www.w3.org/2000/svg" xmlns:xlink="http://www.w3.org/1999/xlink" x="0px" y="0px"
	 viewBox="0 0 392.921 392.921" style="enable-background:new 0 0 392.921 392.921;" xml:space="preserve">
<g>
	<path style="fill:#56ACE0;" d="M132.622,154.246H97.261c1.81,16.549,7.693,31.871,16.549,44.929
		c7.628-1.228,15.257-2.327,22.95-3.232C134.432,182.497,133.075,168.339,132.622,154.246z"/>
	<path style="fill:#56ACE0;" d="M136.76,90.764c-7.758-0.905-15.515-2.004-23.273-3.232c-8.792,13.123-14.61,28.444-16.356,44.994
		h35.426C133.075,118.368,134.497,104.339,136.76,90.764z"/>
	<path style="fill:#56ACE0;" d="M131.006,218.57c4.202,3.62,8.663,6.917,13.382,9.826c-1.164-3.62-2.198-7.305-3.168-11.055
		C137.794,217.665,134.432,218.117,131.006,218.57z"/>
	<path style="fill:#56ACE0;" d="M141.35,69.366c0.97-3.943,2.069-7.822,3.297-11.572c-4.978,3.038-9.632,6.465-13.964,10.279
		C134.174,68.525,137.729,68.978,141.35,69.366z"/>
	<path style="fill:#56ACE0;" d="M162.941,215.402c2.651,9.438,5.689,17.648,8.986,24.566c7.822,2.004,16.032,3.038,24.501,3.038
		s16.679-1.034,24.566-3.038c3.297-6.853,6.335-15.063,8.921-24.501C207.677,213.915,185.309,213.915,162.941,215.402z"/>
	<path style="fill:#56ACE0;" d="M230.045,71.305c-2.715-9.632-5.818-18.036-9.244-25.018c-7.758-1.939-15.968-2.974-24.372-2.974
		c-8.339,0-16.485,1.034-24.178,2.974c-3.362,6.982-6.529,15.386-9.244,25.083C185.374,72.792,207.677,72.792,230.045,71.305z"/>
	<path style="fill:#56ACE0;" d="M158.222,193.939c25.406-1.875,51.071-1.875,76.477,0c2.004-11.96,3.426-25.277,3.879-39.693h-84.17
		C154.861,168.663,156.154,181.98,158.222,193.939z"/>
	<path style="fill:#56ACE0;" d="M196.493,94.255c-12.735,0-25.535-0.517-38.271-1.487c-2.004,11.96-3.426,25.277-3.879,39.693
		h84.234c-0.453-14.481-1.745-27.733-3.879-39.693C222.028,93.737,209.228,94.255,196.493,94.255z"/>
	<path style="fill:#56ACE0;" d="M262.368,68.137c-4.331-3.814-8.986-7.24-13.964-10.279c1.164,3.75,2.327,7.628,3.297,11.572
		C255.257,69.042,258.812,68.59,262.368,68.137z"/>
	<path style="fill:#56ACE0;" d="M248.727,228.267c4.655-2.844,9.051-6.077,13.123-9.632c-3.362-0.453-6.659-0.84-10.02-1.228
		C250.861,221.091,249.826,224.711,248.727,228.267z"/>
	<path style="fill:#56ACE0;" d="M256.226,195.943c7.628,0.905,15.257,2.004,22.885,3.232c8.921-13.123,14.739-28.444,16.614-44.929
		h-35.297C259.847,168.339,258.489,182.432,256.226,195.943z"/>
	<path style="fill:#56ACE0;" d="M260.364,132.525h35.362c-1.745-16.55-7.499-31.871-16.356-44.994
		c-7.693,1.293-15.386,2.327-23.143,3.232C258.554,104.21,259.911,118.368,260.364,132.525z"/>
</g>
<rect x="182.012" y="341.915" style="fill:#FFC10D;" width="28.897" height="28.897"/>
<path style="fill:#194F82;" d="M357.075,345.471H232.63V330.99c0-6.012-4.848-10.925-10.925-10.925h-14.481v-33.939
	c74.02-5.56,132.525-67.556,132.525-142.933C339.944,64.259,275.556,0,196.493,0S53.107,64.259,53.107,143.386
	c0,75.442,58.505,137.374,132.525,142.933v33.939h-14.481c-6.012,0-10.925,4.848-10.925,10.925v14.481H35.847
	c-6.012,0-10.925,4.848-10.925,10.925s4.848,10.925,10.925,10.925h124.38v14.481c0,6.012,4.848,10.925,10.925,10.925h50.618
	c6.012,0,10.925-4.848,10.925-10.925v-14.481h124.38c6.012,0,10.925-4.849,10.925-10.925
	C367.935,350.319,363.087,345.471,357.075,345.471z M210.974,370.812h-28.897v-28.897h28.897V370.812z M75.346,154.246h57.277
	c0.453,14.158,1.875,28.251,4.202,41.697c-15.451,1.745-30.772,4.331-45.964,7.499C82.392,188.703,76.962,172.024,75.346,154.246z
	 M317.64,132.525h-57.277c-0.453-14.158-1.875-28.251-4.202-41.697c15.451-1.745,30.772-4.331,45.964-7.499
	C310.594,98.069,316.024,114.747,317.64,132.525z M238.578,154.246c-0.453,14.481-1.875,27.733-3.879,39.693
	c-25.406-1.875-51.071-1.875-76.477,0c-2.069-11.96-3.426-25.277-3.879-39.693H238.578z M154.408,132.525
	c0.453-14.481,1.875-27.733,3.879-39.693c12.735,0.905,25.471,1.487,38.271,1.487s25.471-0.517,38.271-1.487
	c2.069,11.96,3.426,25.277,3.879,39.693H154.408z M229.98,215.402c-8.727,31.677-22.497,49.584-33.487,49.584
	s-24.76-17.907-33.552-49.584C185.309,213.915,207.677,213.915,229.98,215.402z M235.733,258.521
	c6.659-11.378,12.024-25.471,16.097-41.18c12.283,1.422,24.566,3.232,36.719,5.56C274.457,238.998,256.356,251.41,235.733,258.521z
	 M256.226,195.943c2.263-13.511,3.62-27.604,4.202-41.697h57.277c-1.552,17.778-7.046,34.457-15.451,49.196
	C287.063,200.275,271.677,197.818,256.226,195.943z M251.766,69.43c-4.008-15.709-9.438-29.802-16.097-41.18
	c20.622,7.046,38.853,19.459,52.881,35.685C276.331,66.198,264.049,68.073,251.766,69.43z M230.045,71.305
	c-22.303,1.487-44.671,1.487-66.974,0c8.792-31.677,22.497-49.584,33.487-49.584C207.483,21.721,221.253,39.628,230.045,71.305z
	 M157.317,28.186c-6.659,11.378-12.024,25.471-15.968,41.18c-12.283-1.422-24.566-3.168-36.784-5.495
	C118.529,47.774,136.695,35.297,157.317,28.186z M136.76,90.764c-2.263,13.511-3.685,27.604-4.202,41.697H75.281
	c1.552-17.778,7.046-34.457,15.451-49.196C105.988,86.432,121.309,89.018,136.76,90.764z M141.22,217.277
	c4.008,15.709,9.438,29.802,16.097,41.244c-20.622-7.046-38.788-19.459-52.752-35.62
	C116.655,220.509,128.873,218.699,141.22,217.277z"/>
<g>
</g>
<g>
</g>
<g>
</g>
<g>
</g>
<g>
</g>
<g>
</g>
<g>
</g>
<g>
</g>
<g>
</g>
<g>
</g>
<g>
</g>
<g>
</g>
<g>
</g>
<g>
</g>
<g>
</g>
</svg>
