<?xml version="1.0"?>
<svg xmlns="http://www.w3.org/2000/svg" viewBox="0 0 24 24">
    <path d="M20.333,6H3.667C2.746,6,2,6.767,2,7.714v8.571C2,17.232,2.746,18,3.667,18h16.667C21.254,18,22,17.232,22,16.286V7.714 C22,6.767,21.254,6,20.333,6z M8.217,14.032c0.71-0.003,0.904-0.83,0.913-1.036h1.278c-0.032,0.66-0.653,2-2.191,2.005 C6.904,15.004,6,14.013,6,12.528v-0.984c0-0.403,0.276-2.44,2.234-2.481c1.673-0.035,2.133,1.386,2.182,2.043H9.134 c-0.005-0.206-0.176-1.063-0.899-1.075c-0.886-0.015-0.951,1.227-0.951,1.503v0.993C7.272,13.006,7.493,14.035,8.217,14.032z M14,13 h-1v1h-1v-1h-1v-1h1v-1h1v1h1V13z M18,13h-1v1h-1v-1h-1v-1h1v-1h1v1h1V13z"/>
</svg>
